<?xml version="1.0" encoding="UTF-8"?>
<svg width="60px" height="60px" viewBox="0 0 60 60" version="1.1" xmlns="http://www.w3.org/2000/svg" xmlns:xlink="http://www.w3.org/1999/xlink">
    <!-- Generator: Sketch 63.1 (92452) - https://sketch.com -->
    <title>icon 01</title>
    <desc>Created with Sketch.</desc>
    <g id="icon-01" stroke="none" stroke-width="1" fill="none" fill-rule="evenodd">
        <path d="M9.282456,35.7039845 L20.0609112,33.5499795 L20.0609112,28.0745725 L9.282456,30.9101818 L9.282456,35.7039845 L9.282456,35.7039845 Z M9.282456,52.1383013 L20.0609112,52.1383013 L20.0609112,46.3963894 L9.282456,47.1796655 L9.282456,52.1383013 Z M9.282456,43.8976431 L20.0609112,42.8556817 L20.0609112,37.3962192 L9.282456,39.2052126 L9.282456,43.8973435 L9.282456,43.8976431 Z M9.282456,27.3616311 L20.0609112,24.3927664 L20.0609112,18.7137223 L9.282456,22.3635922 L9.282456,27.3613315 L9.282456,27.3616311 Z M56.9557574,30.957058 L56.9557574,30.9570583 C56.8940758,30.4944786 56.5798724,30.1047693 56.1408976,29.946381 L42.2524852,25.8967509 C41.6572071,25.6852907 41.0853935,25.7087529 40.6152457,25.8967509 L26.7271271,29.9466806 L26.7271271,29.9466806 C26.2882404,30.1050196 25.974054,30.4945908 25.9122673,30.9570583 C25.8809844,31.1919806 25.1680948,36.7458933 26.6251558,43.0906267 C27.4944586,46.8665317 28.9515196,50.1250426 30.9569298,52.7961419 C33.4400076,56.1018991 36.7614038,58.4751861 40.8348157,59.8696849 C41.1717081,60.0107586 41.539585,60.0733243 42.0488305,59.8696849 C46.1143993,58.4830115 49.4355076,56.101905 51.9267164,52.7961419 C53.9318269,50.1250661 55.3888879,46.8584007 56.2581907,43.0906267 C57.6996068,36.7459286 56.9870238,31.1919971 56.9554401,30.9570583 L56.9557574,30.957058 Z M53.7988946,42.5266323 C52.0518643,50.1328559 47.8924669,55.1462343 41.4301525,57.4257103 C34.9912791,55.154095 30.8315879,50.171983 29.0770376,42.5973078 C28.0037922,37.9755645 28.1839707,33.6988328 28.317226,32.0302917 L41.4301466,28.2625118 L54.5430672,32.0302917 C54.6760193,33.6906902 54.8561967,37.9207983 53.7988946,42.5265736 L53.7988946,42.5266323 Z M37.2078345,22.2072189 L37.2078343,22.207219 C38.3717124,22.0287466 39.5475577,21.9397507 40.7250422,21.9410138 C42.5737383,21.9410138 44.3676918,22.1605955 46.090958,22.5675759 L46.090958,5.92992751 L39.2914809,0 L16.6460033,8.45991085 L16.6460033,10.5751118 L37.2084629,3.64262611 L37.2084629,22.2071955 L37.2078345,22.2072189 Z M23.1708449,29.9701859 L23.1708432,29.9701878 C25.5780169,27.1867831 28.6117585,25.0148009 32.0223774,23.6330096 L32.0223774,13.2305505 L25.9357653,9.53315817 L3.00782072,17.7972573 L3,52.2556492 L6.01578784,52.2556492 L6.01578784,19.4579848 L23.1708421,13.8102247 L23.1708421,29.9702407 L23.1708449,29.9701859 Z M35.6334686,49.435677 L35.6334686,40.9210117 C35.0303709,41.0620854 34.4272733,41.2028584 33.8160565,41.3361114 L33.8160562,41.3361107 C33.5770097,40.6464165 33.2971758,39.9715388 32.9780374,39.3150556 C36.5575197,38.7354201 39.7303388,37.9365014 42.4952609,36.9339491 L40.4197628,36.9339491 L40.4197628,32.4923843 L42.8556178,32.4923843 L42.8556178,36.8006996 C43.8662952,36.4247036 44.8219244,36.0174235 45.7149913,35.5866848 L44.4615733,34.8425122 L45.659949,33.1427105 L45.6599556,33.142714 C47.2422233,33.976591 48.7966791,34.8622144 50.3208025,35.7981508 L49.0364,37.6859505 C48.0570067,37.0278047 46.9994062,36.3621448 45.8792377,35.6886595 L46.9915867,37.4272652 L46.991578,37.4272686 C45.2061256,38.1113934 43.3983601,38.7357818 41.5712896,39.2994057 L48.4252274,39.2994057 L48.4252274,49.4512987 L46.091044,49.4512987 L46.091044,48.5741763 L37.9442673,48.5741763 L37.9442673,49.4512987 L35.6335484,49.4512987 L35.6335484,49.4356573 L35.6334686,49.435677 Z M38.0148747,33.1348975 L39.4168876,34.8659833 L39.4168876,34.8659867 C37.8595245,35.9325583 36.2767751,36.961583 34.6700089,37.9521622 L33.4713335,36.0800016 C35.077289,35.1791151 36.5969122,34.2000214 38.0148697,33.1348975 L38.0148747,33.1348975 Z M46.1063094,41.0070796 L37.9598265,41.0070796 L37.9598265,42.0724996 L46.1066032,42.0724996 L46.1066032,41.0070796 L46.1063094,41.0070796 Z M37.9598265,44.4692511 L46.1066032,44.4692511 L46.1066032,43.4044303 L37.9598265,43.4044303 L37.9598265,44.4692511 Z M37.9598265,46.8822409 L46.1066032,46.8822409 L46.1066032,45.8011759 L37.9598265,45.8011759 L37.9598265,46.8822409 Z" id="形状" fill="#000000" fill-rule="nonzero"></path>
    </g>
</svg>