<?xml version="1.0" encoding="UTF-8"?>
<svg width="60px" height="60px" viewBox="0 0 60 60" version="1.1" xmlns="http://www.w3.org/2000/svg" xmlns:xlink="http://www.w3.org/1999/xlink">
    <!-- Generator: Sketch 63.1 (92452) - https://sketch.com -->
    <title>icon 07</title>
    <desc>Created with Sketch.</desc>
    <g id="icon-07" stroke="none" stroke-width="1" fill="none" fill-rule="evenodd">
        <path d="M56.447604,37.7591239 C57.0158164,38.169134 60,40.4810118 60,43.8967758 C60,47.670386 56.4410963,49.7957493 56.4410963,49.7957494 C56.4410963,49.7957494 51.2361249,54.5712896 35.5344611,56.0655487 C19.8327973,57.5598137 7.99145735,52.4415858 7.99145735,52.4415858 C7.99145735,52.4415858 0.483293886,49.5788275 0.00833994462,44.1569763 C-0.186849485,40.9580621 3.1031301,38.227617 3.69302746,37.7635064 C4.78174899,38.7589347 12.1684859,44.8487512 29.9998655,44.8487512 C49.2018876,44.8487512 56.2915149,37.915273 56.447664,37.7591239 Z M38.8635128,5.9328429 C41.4117695,6.59647976 43.9795554,7.63313957 46.3781828,9.19679823 C46.3781828,9.19679823 55.0965099,15.3126096 56.0941294,24.0309668 L56.0941294,24.0309668 L56.2828396,34.7641149 C55.0900187,35.8181366 47.3932047,41.9643254 30.0367563,41.9643254 C12.9709938,41.9643254 5.18519701,36.0241322 3.7841892,34.8226483 L3.7841892,34.8226483 L3.78498889,25.6187615 C3.81312246,25.0638117 4.67828683,11.1381646 20.8608179,5.94802437 C20.8456367,6.04127981 20.8347931,6.13670428 20.8261181,6.2342978 C20.305621,11.8664731 21.444231,21.6106418 29.8480686,23.534314 L29.8480686,23.534314 C29.8545748,23.5386515 29.8589122,23.5386515 29.8632497,23.5364828 C29.8697559,23.5386515 29.8740934,23.5386515 29.8784309,23.5408203 L29.8784309,23.5408203 C38.2822925,21.6106358 39.4208791,11.8665151 38.9003813,6.2342978 C38.8895377,6.13019837 38.878694,6.03043642 38.8635128,5.9328429 Z M29.9825336,31.5348204 C28.1607936,31.5348204 26.6817112,33.0117355 26.6817112,34.8356427 C26.6817112,36.659556 28.1586264,38.1364651 29.9825336,38.1364651 C31.8042736,38.1364651 33.283356,36.65955 33.283356,34.8356427 C33.283356,33.0139027 31.8064409,31.5348204 29.9825336,31.5348204 Z M23.263735,7.8609156 C23.636788,3.818386 29.6485221,3.99622282 29.8502151,4.00272904 L29.8697272,4.00215387 C30.2949589,3.99072056 36.0712843,3.90088837 36.4366952,7.8609156 C36.8140706,11.9663593 35.9855977,19.0689601 29.8589201,20.4721351 L29.8589201,20.4721351 L29.8589201,20.4764726 L29.8480764,20.4743038 C29.8437389,20.4743038 29.8415701,20.4764726 29.8372327,20.4764726 L29.8372327,20.4764726 C23.7126641,19.068954 22.8820371,11.9663413 23.263735,7.8609156 Z" id="形状结合" fill="#fff" fill-rule="nonzero"></path>
    </g>
</svg>
