<?xml version="1.0" encoding="UTF-8"?>
<svg width="60px" height="60px" viewBox="0 0 60 60" version="1.1" xmlns="http://www.w3.org/2000/svg" xmlns:xlink="http://www.w3.org/1999/xlink">
    <!-- Generator: Sketch 63.1 (92452) - https://sketch.com -->
    <title>icon 05</title>
    <desc>Created with Sketch.</desc>
    <g id="icon-05" stroke="none" stroke-width="1" fill="none" fill-rule="evenodd">
        <path d="M3.51532509,13.5930432 L3.51532509,39.3225108 C3.51532509,40.1452969 4.18864029,40.8185348 5.01134907,40.8185348 L30.7402366,40.8185348 C31.1893454,40.8185348 31.6379902,40.5938637 31.9370867,40.220111 C32.1616025,39.8460476 32.2364153,39.3225121 32.0870223,38.8737899 L31.6380682,37.377766 L44.8021048,15.9118803 L48.2425591,25.2610313 C48.3920293,25.7096748 48.7660927,26.0089272 49.1400033,26.1586302 L57.217762,30.3470578 C57.7412956,30.4968387 58.0407028,30.646231 58.3394062,30.4968387 C58.5641546,30.3470578 58.9378299,30.0478846 58.7136248,29.5243496 L50.1872987,5.9639892 L49.1400742,2.9721797 C48.9155585,2.37406593 48.3920235,2 47.7190241,2 L44.2036797,2.0748128 C43.6801461,2.14939294 43.2311907,2.37406336 42.9320941,2.82270878 L28.1975559,26.8316367 L23.7097224,13.0695102 C23.485362,12.4710864 22.9618265,12.0224403 22.2888271,12.0224403 L5.08600783,12.0224403 C4.26360841,12.0224403 3.59029965,12.7703363 3.51532509,13.5930387 L3.51532509,13.5930432 Z M13.8370166,15.0891445 L21.1669051,15.0891445 L26.1779577,30.2724435 L13.8370166,30.2724435 L13.8370166,15.0891445 L13.8370166,15.0891445 Z M43.2312029,35.5827473 C43.9043634,41.1173348 48.9904608,45.081614 54.5999385,44.4083762 L54.6748286,44.4083762 C55.1237828,44.333796 55.4974601,43.9597327 55.7218985,43.5110093 L59.9105581,33.3388402 C60.1347632,32.8153066 59.9105581,32.1422994 59.5363394,31.7682419 C59.1627414,31.4690687 58.4894243,31.3195984 57.9658958,31.6187716 C56.9937161,32.0674151 55.1984473,34.6851619 54.226113,34.760052 C50.9351296,35.1341154 47.8685846,33.4886211 46.5222894,30.5717082 C46.2229608,30.1227541 45.6993486,29.8235029 45.1758137,29.8235029 C44.65228,29.8235029 44.1287438,30.1226761 43.9043828,30.646289 C43.2312222,32.2172031 43.0067838,33.9372724 43.2312222,35.5827608 L43.2312029,35.5827473 Z M0,52.3366768 C0,55.6276602 3.06676409,58.3951086 6.73147631,58.3951086 L40.463748,58.3951086 C44.2036855,58.3951086 47.1954821,55.6276602 47.1954821,52.3366768 C47.1954821,48.9708033 44.2036726,46.2036642 40.463748,46.2036642 L6.73134741,46.2036642 C2.99179661,46.2036642 0,48.9708033 0,52.3366768 L0,52.3366768 Z M37.9208346,52.3366768 C37.9208346,51.5138907 38.5941498,50.8409686 39.4163881,50.8409686 C40.2393289,50.8409686 40.9125668,51.5139745 40.9125668,52.3366768 C40.9125668,53.1593856 40.2392516,53.8327008 39.4163881,53.8327008 C38.593834,53.8327008 37.9208346,53.1593856 37.9208346,52.3366768 Z M27.3747305,52.3366768 C27.3747305,51.5138907 28.0477363,50.8409686 28.8705933,50.8409686 C29.6932248,50.8409686 30.3664562,51.5139745 30.3664562,52.3366768 C30.3664562,53.1593856 29.693141,53.8327008 28.8705933,53.8327008 C28.0478072,53.8327008 27.3747305,53.1593856 27.3747305,52.3366768 Z M16.903452,52.3366768 C16.903452,51.5138907 17.5766899,50.8409686 18.399476,50.8409686 C19.2222621,50.8409686 19.8955,51.5139745 19.8955,52.3366768 C19.8955,53.1593856 19.2222621,53.8327008 18.399476,53.8327008 C17.5766899,53.8327008 16.9036905,53.1593856 16.9036905,52.3366768 L16.903452,52.3366768 L16.903452,52.3366768 Z M6.35767011,52.3366768 C6.35767011,51.5138907 7.03067595,50.8409686 7.85337829,50.8409686 C8.67616441,50.8409686 9.34947961,51.5139745 9.34947961,52.3366768 C9.34947961,53.1593856 8.67616441,53.8327008 7.85337829,53.8327008 C7.03074685,53.8327008 6.35767011,53.1593856 6.35767011,52.3366768 Z" id="形状" fill="#fff" fill-rule="nonzero"></path>
    </g>
</svg>
