<?xml version="1.0" encoding="UTF-8"?>
<svg width="60px" height="60px" viewBox="0 0 60 60" version="1.1" xmlns="http://www.w3.org/2000/svg" xmlns:xlink="http://www.w3.org/1999/xlink">
    <!-- Generator: Sketch 63.1 (92452) - https://sketch.com -->
    <title>icon 02</title>
    <desc>Created with Sketch.</desc>
    <g id="icon-02" stroke="none" stroke-width="1" fill="none" fill-rule="evenodd">
        <path d="M9.28036071,35.706454 L20.0635269,33.5497621 L20.0635269,28.0767386 L9.28036071,30.9137655 L9.28036071,35.7067533 L9.28036071,35.706454 Z M9.28036071,52.1438481 L20.0635269,52.1438481 L20.0635269,46.4018763 L9.28036071,47.1837771 L9.28036071,52.1438481 L9.28036071,52.1438481 Z M9.28036071,43.8983936 L20.0635269,42.8565537 L20.0635269,37.3934491 L9.28036071,39.2066721 L9.28036071,43.8983936 L9.28036071,43.8983936 Z M9.28036071,27.3588116 L20.0635269,24.3880618 L20.0635269,18.7070941 L9.28036071,22.3551739 L9.28036071,27.3585123 L9.28036071,27.3588116 Z M56.9614456,30.9552076 L56.9614456,30.9552077 C56.9002837,30.4911652 56.5853113,30.1000306 56.1449873,29.9413168 L42.2534572,25.8911646 C41.6542574,25.6778091 41.0833059,25.7057556 40.6172303,25.8911646 L26.7257002,29.9413168 L26.7257002,29.9413168 C26.2855863,30.100398 25.9706743,30.4913143 25.9089367,30.9552077 C25.8779851,31.1895983 25.1651972,36.7428532 26.6223268,43.092447 C27.4880684,46.8649353 28.945198,50.1313849 30.9525434,52.8007359 C33.4379843,56.1050416 36.7603201,58.4832061 40.8296879,59.8721302 C41.1671503,60.0094591 41.5352661,60.0728647 42.0407061,59.8721302 C46.109487,58.4841158 49.4321456,56.1056519 51.9169703,52.8007359 C53.9258182,50.1307862 55.3823432,46.8646711 56.2483901,43.0927404 C57.705819,36.7431349 56.9930334,31.1886827 56.9614808,30.9552077 L56.9614456,30.9552076 Z M53.8067858,42.5317077 C52.0599723,50.1415971 47.8989517,55.1518611 41.4354846,57.4305611 C34.9927356,55.1590743 30.8368447,50.1719406 29.0792084,42.599966 C28.0070192,37.9779643 28.1864217,33.7027358 28.3192407,32.0304371 L41.4336945,28.2591519 L54.5493808,32.0304371 C54.6855077,33.6922065 54.8649066,37.9202528 53.8068445,42.5317664 L53.8067858,42.5317077 Z M37.2131548,22.2058215 L37.2131541,22.2058216 C38.3780701,22.0290185 39.5546599,21.9403197 40.7329223,21.9404794 C42.5794998,21.9404794 44.3749921,22.15684 46.0968617,22.5646172 L46.0968617,5.92978474 L39.2940987,0 L16.6486632,8.46238439 L16.6486632,10.5791132 L37.2137175,3.64863734 L37.2131165,22.2054424 L37.2131548,22.2058215 Z M23.1713743,29.969835 L23.1713748,29.9698344 C25.5798829,27.1859762 28.6145008,25.0132614 32.0259362,23.6301478 L32.0259362,13.2261878 L32.0238327,13.2261878 L25.9356981,9.52522103 L3.01141903,17.7919864 L3,52.2573159 L6.01943444,52.2573159 L6.01943444,19.459179 L23.1713983,13.8103625 L23.1713983,29.9697933 L23.1713743,29.969835 Z M32.7513329,37.4240744 L32.7513329,35.5841056 L40.626304,35.5841056 C40.5767214,35.4374612 40.4784576,35.192553 40.3312122,34.8487825 C40.0854025,34.1624374 39.890077,33.671418 39.7422306,33.3769272 L41.9506122,33.0824364 C42.0479745,33.327645 42.1711798,33.671418 42.3184252,34.1128548 C42.612315,34.7502158 42.8082415,35.2415347 42.9068081,35.5841056 L50.1197078,35.5841056 L50.1197078,37.4240744 L42.4653302,37.4240744 L42.4653302,39.853324 L48.9417095,39.853324 L48.9417095,46.1827983 C48.9903906,47.8514816 48.1805386,48.6595236 46.5130643,48.6114435 C45.7269554,48.6601246 44.8939636,48.6850662 44.0110958,48.6850662 C43.9618136,48.2436305 43.8386083,47.6306077 43.6435833,46.8454026 C44.4275911,46.8946847 45.1151334,46.9181238 45.7044201,46.9181238 C46.5872939,46.9674059 47.0040861,46.5509118 46.9551021,45.6671366 L46.9551021,41.6930134 L42.4653208,41.6930134 L42.4653208,50.7456002 L40.4044839,50.7456002 L40.4044839,41.6930134 L36.0622473,41.6930134 L36.0622473,48.9056197 L34.0011111,48.9056197 L34.0011111,39.8530329 L40.4044781,39.8530329 L40.4044781,37.4243878 L32.7513329,37.4240873 L32.7513329,37.4240744 Z" id="形状" fill="#000000" fill-rule="nonzero"></path>
    </g>
</svg>