<?xml version="1.0" encoding="UTF-8"?>
<svg width="60px" height="60px" viewBox="0 0 60 60" version="1.1" xmlns="http://www.w3.org/2000/svg" xmlns:xlink="http://www.w3.org/1999/xlink">
    <!-- Generator: Sketch 63.1 (92452) - https://sketch.com -->
    <title>icon 06</title>
    <desc>Created with Sketch.</desc>
    <g id="icon-06" stroke="none" stroke-width="1" fill="none" fill-rule="evenodd">
        <path d="M18.4726563,14.9121094 C19.0351563,14.9121094 19.5800781,14.6894531 19.9785156,14.2851562 C20.3769531,13.8867187 20.6054688,13.3417969 20.6054688,12.7792969 L20.6054688,2.1328125 C20.6054688,0.955078125 19.6503906,0 18.4726563,0 C17.2949219,0 16.3398438,0.955078125 16.3398438,2.1328125 L16.3398438,12.7851562 C16.3457031,13.9570312 17.3007813,14.9121094 18.4726563,14.9121094 L18.4726563,14.9121094 Z M40.8378906,14.9121094 C41.4003906,14.9121094 41.9453125,14.6894531 42.34375,14.2851562 C42.7421875,13.8867187 42.9707031,13.3417969 42.9707031,12.7792969 L42.9707031,2.1328125 C42.9707031,0.955078125 42.015625,0 40.8378906,0 C39.6601562,0 38.7050781,0.955078125 38.7050781,2.1328125 L38.7050781,12.7851562 C38.7109375,13.9570312 39.6660156,14.9121094 40.8378906,14.9121094 L40.8378906,14.9121094 Z M24.6074219,37.640625 L29.8632812,37.640625 L29.8632812,42.4804687 L24.6074219,42.4804687 L24.6074219,37.640625 Z M54.2558594,8.953125 L47.2304688,8.953125 L47.2304688,12 C47.2304688,15.5273437 44.3710938,18.3925781 40.8378906,18.3925781 C37.3105469,18.3925781 34.4453125,15.5332031 34.4453125,12 L34.4453125,8.953125 L24.8652344,8.953125 L24.8652344,12 C24.8652344,15.5273437 22.0058594,18.3925781 18.4726562,18.3925781 C14.9394531,18.3925781 12.0859375,15.5273437 12.0859375,12 L12.0859375,8.953125 L5.25976562,8.953125 C2.91601562,8.953125 1,10.8691406 1,13.2128906 L1,55.7402344 C1,58.0839844 2.91601562,60 5.25976562,60 L54.25,60 C56.59375,60 58.509779,58.0839844 58.509779,55.7402344 L58.509779,13.2128906 C58.515625,10.8691406 56.5996094,8.953125 54.2558594,8.953125 Z M41.5527344,44.9414062 L32.3710937,44.9414062 L32.3710937,50.9824219 L29.8574219,50.9824219 L29.8574219,44.9414062 L17.9628906,44.9414062 L17.9628906,42.4804688 L22.1757812,42.4804688 L22.1757812,35.2617188 L29.8632812,35.2617188 L29.8632812,31.4882813 L23.875,31.4882813 C22.75,33.5097656 21.4433594,35.3144531 20.1074219,36.6855469 C19.6386719,36.2460938 18.5898437,35.4257813 17.9863281,35.0449219 C20.3945312,32.8828125 22.4863281,29.4140625 23.6875,25.7753906 L26.1484375,26.4609375 C25.8320312,27.3105469 25.46875,28.2128906 25.1289062,29.0332031 L40.2695312,29.0332031 L40.2695312,31.4941406 L32.3710937,31.4941406 L32.3710937,35.2675781 L39.6660156,35.2675781 L39.6660156,37.6464844 L32.3710937,37.6464844 L32.3710937,42.4804688 L41.5527344,42.4804688 L41.5527344,44.9414062 Z" id="形状" fill="#fff" fill-rule="nonzero"></path>
    </g>
</svg>
