<?xml version="1.0" encoding="UTF-8"?>
<svg width="60px" height="60px" viewBox="0 0 60 60" version="1.1" xmlns="http://www.w3.org/2000/svg" xmlns:xlink="http://www.w3.org/1999/xlink">
    <!-- Generator: Sketch 63.1 (92452) - https://sketch.com -->
    <title>icon 03</title>
    <desc>Created with Sketch.</desc>
    <g id="icon-03" stroke="none" stroke-width="1" fill="none" fill-rule="evenodd">
        <path d="M50.5070117,36.4688936 L58.7742545,40.8590846 C59.9055614,41.4292393 60.3136722,42.8516251 59.7405167,43.9619263 L59.7405167,43.9619263 C59.5233668,44.368931 59.1859334,44.6990305 58.7742546,44.9071827 L31.0887556,59.7252261 L31.0887557,59.725226 C30.4053203,60.0776652 29.5936001,60.0776658 28.9101646,59.7252262 L1.22765472,44.9071828 C0.0963478093,44.3370281 -0.311762906,42.917643 0.261392584,41.7923377 L0.261392686,41.7923376 C0.487485858,41.3959136 0.822933501,41.0729686 1.22765482,40.8620852 L9.47989355,36.4688934 L1.22765482,32.0306894 L1.22765496,32.0306894 C0.105872114,31.4240327 -0.32378937,30.0309751 0.26139282,28.8978395 L0.261392726,28.8978397 C0.49832634,28.514624 0.831458316,28.2001152 1.22765486,27.9855922 L9.47989359,23.5773963 L1.22765486,19.1391923 L1.22765477,19.1391922 C0.114774737,18.5528496 -0.312067623,17.1753587 0.274275039,16.0624845 C0.488567744,15.6557546 0.820928417,15.3233934 1.22766063,15.1090989 L28.9101706,0.270073268 C29.6003578,-0.0900244225 30.4165792,-0.0900244225 31.0887616,0.270073268 L58.7742606,15.1061098 L58.7742608,15.1061099 C59.8904054,15.7008279 60.3210515,17.082357 59.7405229,18.2059509 L59.740523,18.2059508 C59.5087165,18.5978917 59.1747189,18.9194412 58.7742608,19.1362032 L50.507018,23.577408 L58.7742608,27.9826031 L58.774261,27.9826032 C59.8921463,28.5773915 60.3230561,29.9611243 59.7405231,31.0854449 L59.7405232,31.0854448 C59.5088357,31.4813278 59.1751399,31.8077677 58.774261,32.0307013 L50.5070182,36.4719061 L50.5070117,36.4688936 Z M29.9934584,42.2154525 C37.6065003,38.1493495 45.2375939,34.0832464 52.8296535,29.9901242 L45.660697,26.1550838 L31.0887555,33.9421964 L31.0887556,33.9421964 C30.8629367,34.0783741 30.6117791,34.1671982 30.3505553,34.2032672 L30.3025423,34.2032672 L30.0924853,34.2332753 L29.9094356,34.2332753 L29.7143827,34.2032672 L29.6483648,34.2032672 L29.6483646,34.2032671 C29.3879332,34.1639854 29.1373875,34.075378 28.9101643,33.9421963 L14.3412119,26.1550838 L7.16926628,29.9901242 C14.7673041,34.0862354 22.4134018,38.1523385 29.9934465,42.2154525" id="形状" fill="#000000" fill-rule="nonzero"></path>
    </g>
</svg>