<?xml version="1.0" encoding="UTF-8"?>
<svg width="60px" height="60px" viewBox="0 0 60 60" version="1.1" xmlns="http://www.w3.org/2000/svg" xmlns:xlink="http://www.w3.org/1999/xlink">
    <!-- Generator: Sketch 63.1 (92452) - https://sketch.com -->
    <title>icon 08</title>
    <desc>Created with Sketch.</desc>
    <g id="icon-08" stroke="none" stroke-width="1" fill="none" fill-rule="evenodd">
        <path d="M44.8571427,59.9999998 L44.8571427,40.7142855 L44.8571427,40.7142855 C44.8571427,39.530819 43.8977522,38.5714283 42.7142857,38.5714283 L29.8571427,38.5714283 L29.8571427,38.5714283 C28.6736763,38.5714284 27.7142856,39.530819 27.7142856,40.7142855 C27.7142856,40.7142855 27.7142856,40.7142855 27.7142856,40.7142855 L27.7142856,59.9999998 L16.9999999,59.9999998 L16.9999998,59.9999998 C15.8165333,59.9999998 14.8571427,59.0406091 14.8571427,57.8571426 C14.8571427,57.8571426 14.8571427,57.8571426 14.8571427,57.8571426 L14.8571427,26.7441962 L14.8571427,26.744089 C14.8571427,26.0931393 15.1530351,25.4774797 15.6613302,25.0708256 L34.9470445,5.89225421 L34.9470445,5.89225417 C35.729703,5.26603966 36.841886,5.26603966 37.6245445,5.89225425 L56.9102588,25.0708257 L56.9102588,25.0708257 C57.4185365,25.4775065 57.714366,26.0931761 57.714366,26.7441293 L57.714366,57.8571426 L57.714366,57.8571426 C57.714366,59.0406092 56.7549753,59.9999998 55.5715088,59.9999998 L44.8572231,59.9999998 L44.8571427,59.9999998 Z M40.5714286,59.9999998 L32,59.9999998 L32,42.8571426 L40.5714286,42.8571426 L40.5714286,59.9999998 Z M14.8571429,19.6406248 L11.2150893,23.206339 L11.2150894,23.206339 C10.8033695,23.6094814 10.5713624,24.1614506 10.5714287,24.7376782 L10.5714287,60 L4.14285724,60 L4.14285714,60 C2.95939063,60 2,59.0406091 2,57.8571425 C2,57.8571425 2,57.8571425 2,57.8571425 L2,2.14285682 L2,2.14285714 C2,0.959390625 2.95939063,0 4.14285714,0 L12.7142857,0 L12.7142856,0 C13.8977521,0 14.8571429,0.959390625 14.8571429,2.14285714 L14.8571429,19.640625 L14.8571429,19.6406248 Z" id="形状" fill="#fff" fill-rule="nonzero"></path>
    </g>
</svg>
