<?xml version="1.0" encoding="UTF-8"?>
<svg width="60px" height="60px" viewBox="0 0 60 60" version="1.1" xmlns="http://www.w3.org/2000/svg" xmlns:xlink="http://www.w3.org/1999/xlink">
    <!-- Generator: Sketch 63.1 (92452) - https://sketch.com -->
    <title>icon 04</title>
    <desc>Created with Sketch.</desc>
    <g id="icon-04" stroke="none" stroke-width="1" fill="none" fill-rule="evenodd">
        <path d="M21.931135,14.2622214 L37.7580838,14.2622214 C37.7580838,14.2622214 38.9539511,10.7651358 46.4074989,5.24394614 C44.9808433,4.50745539 42.9280767,5.64593305 42.0822414,4.96793195 C41.1767518,4.24134044 41.3456859,1.65524404 39.1372489,1.37916515 C36.9288119,1.10308625 34.6286936,4.13975997 34.6286936,4.13975997 C34.6286936,4.13975997 32.6057541,5.98050159 31.684801,3.12829024 C30.7638479,0.276078893 27.3595435,0 26.2552926,0 C25.1510417,0 22.4136745,0.828171977 21.930035,4.34842049 C21.7224744,5.45267136 20.54977,5.86675735 19.5835262,5.31466426 C18.6172824,4.76257118 17.3066356,4.34842049 15.3046592,4.55494587 C17.652268,7.13101363 23.5874789,12.7902751 21.931135,14.2622214 L21.931135,14.2622214 Z M52.021405,47.7115052 C52.021405,47.7115052 52.1130216,34.7368325 52.021405,33.8169793 C51.6989356,27.1916035 38.4481839,18.3577906 38.4481839,18.3577906 L22.2072139,18.3577906 C16.3636194,21.6704785 9.09446932,28.9860192 8.31268791,33.9550511 C8.24423432,34.2134019 7.76059482,44.9056844 7.57613246,48.5396772 C7.39167009,52.1736699 5,55.579139 5,55.579139 C5,55.579139 10.9816015,59.8580707 30.6269407,59.9960778 C50.2722799,60.1340849 53.0792653,56.5917086 55.0580141,55.4411319 C52.3891005,55.5328131 52.021405,47.7115052 52.021405,47.7115052 L52.021405,47.7115052 Z M38.1037162,45.3485623 C37.8375365,47.0600962 36.885721,50.8012337 31.7311916,51.1744287 L31.7311916,54.4517899 L28.08937,54.4517899 L28.08937,51.2009561 C25.9129599,50.8951148 23.9076191,50.3319578 21.8460532,49.640693 L22.9381403,45.3617613 C24.5724213,46.0000361 26.7256684,46.6824368 28.6215999,46.9021612 C31.1933327,47.2014677 32.9258944,46.6724729 33.0871291,44.8085683 C33.4548245,41.542271 21.9984239,40.9669503 22.1066686,35.0736655 C21.9509334,30.7440083 25.0902876,28.8579761 28.219613,28.5973607 L28.219613,25.1908564 L31.8614346,25.1908564 L31.8614346,28.4416902 C33.9296647,28.467053 35.5660808,28.9131659 37.1606353,29.6099303 L36.1513007,33.6426102 C34.5491114,33.0397269 32.9104308,32.4732055 30.9504454,32.4732055 C29.6805601,32.4732055 27.0149463,32.4776699 26.9233298,34.2256304 C26.9233298,37.2390765 31.9663148,37.3947469 33.6403221,38.1058749 C34.860517,38.6249058 35.7096521,39.1317082 36.5786504,39.980908 C38.0958873,41.4627535 38.4105927,43.3719488 38.1036515,45.3484976 L38.1037162,45.3485623 Z" id="形状" fill="#ffffff" fill-rule="nonzero"></path>
    </g>
</svg>
